<svg xmlns="http://www.w3.org/2000/svg" xmlns:xlink="http://www.w3.org/1999/xlink" width="256" zoomAndPan="magnify" viewBox="0 0 192 191.999996" height="256" preserveAspectRatio="xMidYMid meet" version="1.0"><defs><clipPath id="f889bed4d9"><path d="M 8 6.015625 L 188.167969 6.015625 L 188.167969 145 L 8 145 Z M 8 6.015625 " clip-rule="nonzero"/></clipPath><clipPath id="cfcbd562c8"><path d="M 36 100 L 160 100 L 160 185.980469 L 36 185.980469 Z M 36 100 " clip-rule="nonzero"/></clipPath></defs><rect x="-19.2" width="230.4" fill="#ffffff" y="-19.2" height="230.399995" fill-opacity="1"/><rect x="-19.2" width="230.4" fill="#ffffff" y="-19.2" height="230.399995" fill-opacity="1"/><g clip-path="url(#f889bed4d9)"><path fill="#337ab7" d="M 184.078125 117.585938 C 177.78125 111.738281 157.996094 82.945312 152.601562 73.050781 C 147.207031 63.152344 150.351562 51.003906 144.507812 36.609375 C 138.664062 21.761719 98.195312 6.015625 98.195312 6.015625 C 98.195312 6.015625 57.726562 21.761719 51.882812 36.609375 C 46.035156 51.003906 49.183594 63.152344 43.789062 73.050781 C 38.390625 82.945312 19.058594 111.738281 12.3125 117.585938 C 6.019531 123.4375 7.367188 124.785156 13.660156 126.585938 C 19.957031 128.382812 29.398438 134.683594 31.648438 138.28125 C 33.894531 141.882812 33.445312 148.179688 41.539062 140.53125 C 39.742188 136.484375 29.398438 131.535156 30.296875 125.6875 C 31.199219 119.835938 48.734375 102.742188 54.578125 98.242188 C 59.527344 94.644531 70.765625 78.449219 70.765625 78.449219 C 70.765625 78.449219 71.664062 75.75 73.464844 78.898438 C 74.8125 81.148438 88.304688 91.945312 94.597656 97.34375 C 96.84375 99.144531 99.992188 99.144531 102.242188 97.34375 C 108.984375 91.945312 122.027344 81.597656 123.375 78.898438 C 125.171875 75.75 126.074219 78.449219 126.074219 78.449219 C 126.074219 78.449219 137.3125 94.644531 142.261719 98.242188 C 148.105469 102.292969 165.640625 119.835938 166.539062 125.6875 C 167.441406 131.535156 156.648438 136.484375 154.851562 140.082031 C 162.941406 148.179688 162.042969 141.882812 164.742188 137.832031 C 166.988281 134.234375 176.433594 127.933594 182.726562 126.136719 C 189.023438 124.785156 190.371094 123.4375 184.078125 117.585938 Z M 184.078125 117.585938 " fill-opacity="1" fill-rule="nonzero"/></g><g clip-path="url(#cfcbd562c8)"><path fill="#337ab7" d="M 135.964844 100.492188 C 135.964844 100.492188 138.664062 129.734375 125.171875 146.828125 C 111.683594 163.925781 101.792969 184.621094 98.195312 184.621094 C 94.597656 185.070312 84.707031 163.925781 71.214844 146.828125 C 57.726562 129.734375 60.425781 100.492188 60.425781 100.492188 C 53.679688 104.089844 32.097656 125.234375 37.492188 129.734375 C 42.890625 134.234375 86.054688 175.621094 90.101562 181.921875 C 93.699219 185.96875 98.195312 185.96875 98.195312 185.96875 C 98.195312 185.96875 102.691406 186.417969 106.289062 181.921875 C 110.335938 175.621094 153.5 134.683594 158.898438 129.734375 C 164.292969 124.785156 142.710938 104.089844 135.964844 100.492188 Z M 135.964844 100.492188 " fill-opacity="1" fill-rule="nonzero"/></g></svg>